Coordinates
version=1
nRows=8
nColumns=36
inDegrees=yes

Units are S.I. units (second, meters, Newtons, ...)
If the header above contains a line with 'inDegrees', this indicates whether rotational values are in degrees (yes) or radians (no).

endheader
time	pelvis_tilt	pelvis_list	pelvis_rotation	pelvis_tx	pelvis_ty	pelvis_tz	hip_flexion_r	hip_adduction_r	hip_rotation_r	knee_angle_r	knee_angle_r_beta	ankle_angle_r	subtalar_angle_r	mtp_angle_r	hip_flexion_l	hip_adduction_l	hip_rotation_l	knee_angle_l	knee_angle_l_beta	ankle_angle_l	subtalar_angle_l	mtp_angle_l	lumbar_extension	lumbar_bending	lumbar_rotation	arm_flex_r	arm_add_r	arm_rot_r	elbow_flex_r	pro_sup_r	arm_flex_l	arm_add_l	arm_rot_l	elbow_flex_l	pro_sup_l
      1.15833330	    -12.56620459	     -2.36128050	     -0.64408105	     -0.47954250	      1.26647235	     -0.06869450	      0.01672145	     -0.55640996	     -9.98730828	     21.73693244	      0.37938104	    -35.38770410	      5.22452010	     -7.49999987	      2.77975504	     -4.54171066	     -4.01986576	     27.14052581	      0.47369154	    -31.14379631	     -0.03448709	     -7.49999987	      4.65265414	      2.30148740	     -2.31535088	    -24.61029783	    -11.93369127	      6.67138358	     70.92061888	     79.73957208	    -41.98301655	    -13.61875440	     -1.11258135	    109.71223173	    107.21510353
      1.16250000	    -12.34374913	     -2.50155148	     -0.64847914	     -0.47541307	      1.27096513	     -0.06350463	     -0.01087103	     -0.06113421	     -9.53047303	     21.57989849	      0.37664028	    -36.72906532	      4.51282569	     -7.49999987	      2.49044622	     -4.90253038	     -3.71428260	     26.70920605	      0.46616359	    -33.01634037	      0.84173653	     -7.49999987	      4.77370911	      2.16802551	     -2.14111166	    -25.56783055	    -11.49988328	      5.85362352	     72.03067573	     79.71188163	    -42.76771079	    -13.00970583	     -1.92502697	    110.57045953	    107.38563146
      1.16666670	    -12.29261141	     -2.29427966	     -0.63410086	     -0.46524340	      1.27271829	     -0.06688952	     -0.34122460	     -0.33599762	     -9.82737521	     20.99521360	      0.36643560	    -39.08892184	      3.70115826	     -7.49999987	      2.17803400	     -4.60474424	     -3.15681319	     26.52972604	      0.46303107	    -34.24549309	      1.79651686	     -7.49999987	      5.36891754	      1.84695611	     -2.01179124	    -26.57991976	    -11.18724493	      5.47264253	     72.97843577	     79.72331515	    -43.74557251	    -12.82744477	     -2.32930094	    111.42937775	    107.45813900
      1.17083330	    -12.37545735	     -2.17175532	     -0.77835669	     -0.45537966	      1.27646173	     -0.06911155	     -0.55622467	     -0.66604643	     -9.85484037	     20.43663733	      0.35668661	    -40.76557616	      3.38494371	     -7.49999987	      1.65792729	     -4.27085869	     -2.96742383	     25.84922621	      0.45115411	    -35.74203479	      2.13282948	     -7.49999987	      6.18191540	      1.67148584	     -1.85559917	    -27.52410134	    -11.02000339	      5.06178110	     73.84512241	     79.72721109	    -44.80035431	    -12.34129384	     -2.49660695	    112.19548214	    107.50526453
      1.17500000	    -12.39726758	     -2.12815779	     -0.76024401	     -0.44621439	      1.28428043	     -0.06907961	     -0.82674364	     -0.76727315	     -9.98909025	     19.61640966	      0.34237094	    -42.89214059	      2.90718912	     -7.49999987	      1.10717855	     -4.15019142	     -2.85549538	     24.60844427	      0.42949838	    -37.49421650	      2.36193808	     -7.49999987	      6.82238674	      1.58926958	     -1.90883355	    -28.76200051	    -10.77759975	      4.31578193	     75.20055687	     79.74637144	    -45.82647984	    -12.09378058	     -3.04612848	    113.05316444	    107.64062642
      1.17916670	    -12.24393753	     -2.14522972	     -0.74661692	     -0.43850882	      1.28873844	     -0.06722812	     -1.09695262	     -0.67746307	     -9.91463444	     19.19114512	      0.33494867	    -44.78517313	      2.41958754	     -7.49999987	      0.60509814	     -4.09385376	     -2.64136592	     23.65798061	      0.41290966	    -39.28899652	      2.30687618	     -7.49999987	      7.16931095	      1.57171539	     -1.72349388	    -30.10051957	    -10.48416247	      3.32340524	     76.77937367	     79.77945773	    -46.59598225	    -12.00609701	     -3.39236413	    113.98604379	    107.71664647
      1.18333330	    -12.03343103	     -2.43655977	     -0.71753890	     -0.43222257	      1.28993291	     -0.06742876	     -1.03215660	     -0.35067232	    -10.07282884	     19.67069146	      0.34331833	    -45.67749974	      1.98846649	     -7.49999987	      0.28407413	     -4.44571144	     -2.87554960	     23.55517797	      0.41111541	    -41.04323255	      2.34335781	     -7.49999987	      7.41510330	      1.76088809	     -1.61431092	    -30.90976231	    -10.45142289	      3.21374283	     76.93654662	     79.78574500	    -47.34862222	    -11.73705407	     -3.22964973	    114.23175190	    107.73825052
      1.18750000	    -12.17323424	     -2.36539134	     -0.61202212	     -0.42442946	      1.29686691	     -0.06863342	     -0.88742409	     -0.34089143	     -9.78091130	     19.58851202	      0.34188403	    -47.12785726	      1.48805775	     -7.49999987	      0.17381860	     -4.24493510	     -2.70045905	     22.98086510	      0.40109176	    -43.71467928	      1.43254046	     -7.49999987	      8.15137791	      1.64698243	     -1.49910463	    -32.14951228	    -10.21625593	      2.54262601	     78.37874206	     79.86787382	    -48.26001855	    -11.61715269	     -3.47561120	    115.20732752	    108.03349181
